<svg width="358" height="576" viewBox="0 0 358 576" fill="none" xmlns="http://www.w3.org/2000/svg">
<rect width="358" height="576" rx="16" fill="#FAFAFA"/>
<path fill-rule="evenodd" clip-rule="evenodd" d="M21.8335 26.5C20.4528 26.5 19.3335 27.6193 19.3335 29V39C19.3335 40.3807 20.4528 41.5 21.8335 41.5H30.1668C31.5476 41.5 32.6668 40.3807 32.6668 39V29C32.6668 27.6193 31.5476 26.5 30.1668 26.5H21.8335ZM31.0002 29C31.0002 28.5398 30.6271 28.1667 30.1668 28.1667H21.8335C21.3733 28.1667 21.0002 28.5398 21.0002 29V35.6667H23.4471C23.8748 35.6667 24.2892 35.8143 24.6197 36.0767C25.4237 36.7147 26.5706 36.7195 27.3628 36.0907C27.7088 35.8162 28.1376 35.6667 28.5794 35.6667H31.0002V29ZM21.0002 37.3333V39C21.0002 39.4602 21.3733 39.8333 21.8335 39.8333H30.1668C30.6271 39.8333 31.0002 39.4602 31.0002 39V37.3333H28.5794C28.5138 37.3333 28.4502 37.3555 28.3989 37.3963C26.9882 38.5158 24.9826 38.4924 23.5836 37.3821C23.5433 37.3502 23.4929 37.3333 23.4471 37.3333H21.0002ZM22.6668 33.1667C22.6668 32.7064 23.0399 32.3333 23.5002 32.3333H28.5002C28.9604 32.3333 29.3335 32.7064 29.3335 33.1667C29.3335 33.6269 28.9604 34 28.5002 34H23.5002C23.0399 34 22.6668 33.6269 22.6668 33.1667ZM23.5002 29.8333C23.0399 29.8333 22.6668 30.2064 22.6668 30.6667C22.6668 31.1269 23.0399 31.5 23.5002 31.5H28.5002C28.9604 31.5 29.3335 31.1269 29.3335 30.6667C29.3335 30.2064 28.9604 29.8333 28.5002 29.8333H23.5002Z" fill="#616161"/>
<path d="M41.224 37.072V35.92H43.636C44.076 35.92 44.416 35.8 44.656 35.56C44.896 35.312 45.016 34.976 45.016 34.552C45.016 34.112 44.888 33.764 44.632 33.508C44.376 33.252 44.02 33.124 43.564 33.124H41.224V31.972H43.456C43.888 31.972 44.22 31.868 44.452 31.66C44.684 31.452 44.8 31.152 44.8 30.76C44.8 30.376 44.688 30.084 44.464 29.884C44.248 29.684 43.928 29.584 43.504 29.584H41.224V28.432H43.792C44.568 28.432 45.188 28.628 45.652 29.02C46.124 29.404 46.36 29.928 46.36 30.592C46.36 31.008 46.26 31.372 46.06 31.684C45.868 31.988 45.608 32.224 45.28 32.392C44.952 32.56 44.58 32.644 44.164 32.644L44.224 32.392C44.664 32.392 45.064 32.492 45.424 32.692C45.784 32.884 46.068 33.156 46.276 33.508C46.492 33.86 46.6 34.268 46.6 34.732C46.6 35.204 46.488 35.616 46.264 35.968C46.048 36.32 45.74 36.592 45.34 36.784C44.948 36.976 44.484 37.072 43.948 37.072H41.224ZM40 37.072V28.432H41.56V37.072H40Z" fill="#424242"/>
<path d="M51.5166 37.072C51.4766 36.912 51.4446 36.736 51.4206 36.544C51.4046 36.352 51.3966 36.12 51.3966 35.848H51.3486V32.944C51.3486 32.624 51.2566 32.384 51.0726 32.224C50.8966 32.056 50.6246 31.972 50.2566 31.972C49.8966 31.972 49.6086 32.04 49.3926 32.176C49.1846 32.304 49.0566 32.492 49.0086 32.74H47.5566C47.6206 32.172 47.8926 31.712 48.3726 31.36C48.8526 31.008 49.4966 30.832 50.3046 30.832C51.1446 30.832 51.7806 31.024 52.2126 31.408C52.6446 31.784 52.8606 32.34 52.8606 33.076V35.848C52.8606 36.04 52.8726 36.236 52.8966 36.436C52.9286 36.636 52.9726 36.848 53.0286 37.072H51.5166ZM49.3926 37.192C48.7766 37.192 48.2846 37.04 47.9166 36.736C47.5566 36.424 47.3766 36.008 47.3766 35.488C47.3766 34.928 47.5806 34.484 47.9886 34.156C48.3966 33.828 48.9726 33.608 49.7166 33.496L51.6246 33.208V34.168L49.9686 34.42C49.6086 34.476 49.3366 34.576 49.1526 34.72C48.9766 34.864 48.8886 35.064 48.8886 35.32C48.8886 35.552 48.9726 35.732 49.1406 35.86C49.3086 35.98 49.5406 36.04 49.8366 36.04C50.2686 36.04 50.6286 35.932 50.9166 35.716C51.2046 35.5 51.3486 35.236 51.3486 34.924L51.5166 35.848C51.3566 36.288 51.0926 36.624 50.7246 36.856C50.3646 37.08 49.9206 37.192 49.3926 37.192Z" fill="#424242"/>
<path d="M56.9503 37.192C56.3343 37.192 55.7903 37.056 55.3183 36.784C54.8543 36.512 54.4863 36.136 54.2143 35.656C53.9503 35.168 53.8183 34.616 53.8183 34C53.8183 33.384 53.9503 32.84 54.2143 32.368C54.4863 31.888 54.8543 31.512 55.3183 31.24C55.7903 30.968 56.3343 30.832 56.9503 30.832C57.4543 30.832 57.9103 30.928 58.3183 31.12C58.7263 31.304 59.0623 31.568 59.3263 31.912C59.5903 32.248 59.7583 32.64 59.8303 33.088H58.3783C58.2903 32.76 58.1223 32.504 57.8743 32.32C57.6263 32.136 57.3263 32.044 56.9743 32.044C56.6463 32.044 56.3623 32.124 56.1223 32.284C55.8903 32.444 55.7103 32.672 55.5823 32.968C55.4543 33.264 55.3903 33.608 55.3903 34C55.3903 34.4 55.4543 34.748 55.5823 35.044C55.7103 35.34 55.8943 35.572 56.1343 35.74C56.3743 35.9 56.6543 35.98 56.9743 35.98C57.3263 35.98 57.6263 35.888 57.8743 35.704C58.1223 35.52 58.2903 35.264 58.3783 34.936H59.8303C59.7583 35.384 59.5863 35.78 59.3143 36.124C59.0503 36.46 58.7143 36.724 58.3063 36.916C57.9063 37.1 57.4543 37.192 56.9503 37.192Z" fill="#424242"/>
<path d="M60.9194 37.072V28.348H62.4314V37.072H60.9194ZM64.8674 37.072L62.0834 33.892L64.7834 30.952H66.6074L63.4874 34.168L63.5714 33.604L66.7274 37.072H64.8674Z" fill="#424242"/>
<path d="M67.6108 37.072V28.432H69.1228V37.072H67.6108Z" fill="#424242"/>
<path d="M73.512 37.192C72.864 37.192 72.292 37.056 71.796 36.784C71.308 36.512 70.928 36.136 70.656 35.656C70.384 35.168 70.248 34.612 70.248 33.988C70.248 33.364 70.384 32.816 70.656 32.344C70.928 31.872 71.308 31.504 71.796 31.24C72.292 30.968 72.864 30.832 73.512 30.832C74.168 30.832 74.74 30.968 75.228 31.24C75.716 31.504 76.096 31.872 76.368 32.344C76.64 32.816 76.776 33.364 76.776 33.988C76.776 34.612 76.636 35.168 76.356 35.656C76.084 36.136 75.704 36.512 75.216 36.784C74.728 37.056 74.16 37.192 73.512 37.192ZM73.512 35.98C73.832 35.98 74.12 35.9 74.376 35.74C74.632 35.572 74.832 35.34 74.976 35.044C75.12 34.74 75.192 34.384 75.192 33.976C75.192 33.376 75.032 32.904 74.712 32.56C74.4 32.216 74 32.044 73.512 32.044C73.024 32.044 72.62 32.216 72.3 32.56C71.98 32.904 71.82 33.376 71.82 33.976C71.82 34.384 71.892 34.74 72.036 35.044C72.188 35.34 72.388 35.572 72.636 35.74C72.892 35.9 73.184 35.98 73.512 35.98Z" fill="#424242"/>
<path d="M80.6113 39.652C79.8033 39.652 79.1393 39.476 78.6193 39.124C78.1073 38.772 77.8033 38.296 77.7073 37.696H79.1473C79.2193 37.904 79.3753 38.064 79.6153 38.176C79.8633 38.296 80.1833 38.356 80.5753 38.356C81.1433 38.356 81.5633 38.228 81.8353 37.972C82.1073 37.724 82.2433 37.344 82.2433 36.832V35.512L82.3513 35.536C82.2553 35.984 82.0113 36.344 81.6193 36.616C81.2273 36.88 80.7473 37.012 80.1793 37.012C79.6353 37.012 79.1593 36.884 78.7513 36.628C78.3513 36.372 78.0393 36.016 77.8153 35.56C77.5913 35.096 77.4793 34.556 77.4793 33.94C77.4793 33.316 77.5953 32.772 77.8273 32.308C78.0593 31.844 78.3833 31.484 78.7993 31.228C79.2233 30.964 79.7153 30.832 80.2753 30.832C80.8513 30.832 81.3233 30.972 81.6913 31.252C82.0673 31.524 82.2993 31.904 82.3873 32.392L82.2913 32.404V30.952H83.7673V36.82C83.7673 37.692 83.4833 38.38 82.9153 38.884C82.3553 39.396 81.5873 39.652 80.6113 39.652ZM80.6713 35.812C81.1593 35.812 81.5473 35.648 81.8353 35.32C82.1313 34.984 82.2793 34.516 82.2793 33.916C82.2793 33.316 82.1313 32.852 81.8353 32.524C81.5393 32.196 81.1473 32.032 80.6593 32.032C80.1793 32.032 79.7913 32.2 79.4953 32.536C79.1993 32.864 79.0513 33.328 79.0513 33.928C79.0513 34.528 79.1993 34.992 79.4953 35.32C79.7913 35.648 80.1833 35.812 80.6713 35.812Z" fill="#424242"/>
<rect x="17" y="57" width="324" height="25" rx="7" stroke="#EEEEEE" stroke-width="2"/>
<rect x="17" y="92" width="324" height="50" rx="7" fill="white"/>
<rect x="17" y="92" width="324" height="50" rx="7" stroke="#F5F5F5" stroke-width="2"/>
<rect x="24" y="99" width="176" height="8" rx="4" fill="#E0E0E0"/>
<path d="M42.5404 124.51L34.7547 116.98L34 116.25L28.1392 121.919L25.4595 124.51C25.1802 124.781 25.1802 125.219 25.4595 125.49L30.8141 130.669L34 133.75L39.8608 128.081L39.9516 127.994L42.5404 125.49C42.8199 125.219 42.8199 124.781 42.5404 124.51ZM34 127.587L31.3251 125L34 122.413L36.6749 125L34 127.587Z" fill="#2684FF"/>
<path fill-rule="evenodd" clip-rule="evenodd" d="M34.0002 122.413C32.2489 120.719 32.2404 117.975 33.9811 116.271L28.1274 121.93L31.3134 125.012L34.0002 122.413Z" fill="url(#paint0_linear_46_2)"/>
<path fill-rule="evenodd" clip-rule="evenodd" d="M36.682 124.993L34 127.587C34.8453 128.404 35.3203 129.513 35.3203 130.668C35.3203 131.824 34.8453 132.933 34 133.75L39.868 128.074L36.682 124.993Z" fill="url(#paint1_linear_46_2)"/>
<rect x="17" y="152" width="324" height="66" rx="7" fill="white"/>
<rect x="17" y="152" width="324" height="66" rx="7" stroke="#F5F5F5" stroke-width="2"/>
<rect x="24" y="159" width="230" height="8" rx="4" fill="#E0E0E0"/>
<rect x="24" y="175" width="133" height="8" rx="4" fill="#E0E0E0"/>
<path d="M25.6665 206.357L28.7415 204C30.3757 206.133 32.1115 207.116 34.044 207.116C35.9665 207.116 37.6523 206.144 39.2132 204.029L42.3332 206.328C40.0815 209.378 37.284 210.991 34.044 210.991C30.8148 210.991 27.9898 209.389 25.6665 206.357Z" fill="url(#paint2_linear_46_2)"/>
<path d="M34.0331 196.125L28.5598 200.842L26.0298 197.908L34.0456 191L41.9981 197.913L39.4565 200.837L34.0331 196.125Z" fill="url(#paint3_linear_46_2)"/>
<rect x="17" y="228" width="324" height="50" rx="7" fill="white"/>
<rect x="17" y="228" width="324" height="50" rx="7" stroke="#F5F5F5" stroke-width="2"/>
<rect x="24" y="235" width="201" height="8" rx="4" fill="#E0E0E0"/>
<path d="M40.5626 260.375C41.4255 260.375 42.125 259.675 42.125 258.812C42.125 257.95 41.4254 257.25 40.5626 257.25C39.6996 257.25 39 257.95 39 258.813V260.375H40.5626ZM36.1875 260.375C37.0504 260.375 37.75 259.675 37.75 258.812V254.438C37.75 253.575 37.0504 252.875 36.1875 252.875C35.3246 252.875 34.625 253.575 34.625 254.438V258.812C34.625 259.675 35.3246 260.375 36.1875 260.375Z" fill="#2EB67D"/>
<path d="M27.4374 261.625C26.5745 261.625 25.875 262.325 25.875 263.188C25.875 264.05 26.5746 264.75 27.4374 264.75C28.3004 264.75 29 264.05 29 263.187V261.625H27.4374ZM31.8125 261.625C30.9496 261.625 30.25 262.325 30.25 263.188V267.562C30.25 268.425 30.9496 269.125 31.8125 269.125C32.6754 269.125 33.375 268.425 33.375 267.562V263.188C33.375 262.325 32.6754 261.625 31.8125 261.625Z" fill="#E01E5A"/>
<path d="M34.6255 267.563C34.6255 268.426 35.325 269.125 36.1879 269.125C37.0507 269.125 37.7502 268.425 37.7502 267.563C37.7502 266.7 37.0507 266 36.1877 266H34.6255V267.563ZM34.6255 263.188C34.6255 264.05 35.3251 264.75 36.188 264.75H40.5627C41.4257 264.75 42.1252 264.05 42.1252 263.188C42.1252 262.325 41.4257 261.625 40.5627 261.625H36.188C35.3251 261.625 34.6255 262.325 34.6255 263.188Z" fill="#ECB22E"/>
<path d="M33.3748 254.437C33.3748 253.574 32.6753 252.875 31.8124 252.875C30.9495 252.875 30.25 253.575 30.25 254.437C30.25 255.3 30.9496 256 31.8125 256H33.3748V254.437ZM33.3748 258.812C33.3748 257.95 32.6752 257.25 31.8123 257.25H27.4375C26.5746 257.25 25.875 257.95 25.875 258.812C25.875 259.675 26.5746 260.375 27.4375 260.375H31.8123C32.6752 260.375 33.3748 259.675 33.3748 258.812Z" fill="#36C5F0"/>
<rect x="17" y="288" width="324" height="66" rx="7" fill="white"/>
<rect x="17" y="288" width="324" height="66" rx="7" stroke="#F5F5F5" stroke-width="2"/>
<rect x="24" y="295" width="102" height="8" rx="4" fill="#E0E0E0"/>
<rect x="24" y="311" width="191" height="8" rx="4" fill="#E0E0E0"/>
<g clip-path="url(#clip0_46_2)">
<path fill-rule="evenodd" clip-rule="evenodd" d="M34 327C39.523 327 44 331.59 44 337.253C44 341.782 41.138 345.624 37.167 346.981C36.66 347.082 36.48 346.762 36.48 346.489C36.48 346.151 36.492 345.047 36.492 343.675C36.492 342.719 36.172 342.095 35.813 341.777C38.04 341.523 40.38 340.656 40.38 336.718C40.38 335.598 39.992 334.684 39.35 333.966C39.454 333.707 39.797 332.664 39.252 331.252C39.252 331.252 38.414 330.977 36.505 332.303C35.706 332.076 34.85 331.962 34 331.958C33.15 331.962 32.295 332.076 31.497 332.303C29.586 330.977 28.746 331.252 28.746 331.252C28.203 332.664 28.546 333.707 28.649 333.966C28.01 334.684 27.619 335.598 27.619 336.718C27.619 340.646 29.954 341.526 32.175 341.785C31.889 342.041 31.63 342.493 31.54 343.156C30.97 343.418 29.522 343.871 28.63 342.304C28.63 342.304 28.101 341.319 27.097 341.247C27.097 341.247 26.122 341.234 27.029 341.87C27.029 341.87 27.684 342.185 28.139 343.37C28.139 343.37 28.726 345.2 31.508 344.58C31.513 345.437 31.522 346.245 31.522 346.489C31.522 346.76 31.338 347.077 30.839 346.982C26.865 345.627 24 341.783 24 337.253C24 331.59 28.478 327 34 327Z" fill="black"/>
</g>
<rect x="17" y="364" width="324" height="44" rx="7" fill="white"/>
<rect x="17" y="364" width="324" height="44" rx="7" stroke="#F5F5F5" stroke-width="2"/>
<rect x="24" y="371" width="133" height="8" rx="4" fill="#E0E0E0"/>
<rect x="24" y="387" width="65" height="8" rx="4" fill="#E0E0E0"/>
<rect x="17" y="418" width="324" height="66" rx="7" fill="white"/>
<rect x="17" y="418" width="324" height="66" rx="7" stroke="#F5F5F5" stroke-width="2"/>
<rect x="24" y="425" width="230" height="8" rx="4" fill="#E0E0E0"/>
<rect x="24" y="441" width="74" height="8" rx="4" fill="#E0E0E0"/>
<path fill-rule="evenodd" clip-rule="evenodd" d="M39.6333 459.5H28.3762C27.34 459.5 26.5 460.339 26.5 461.375V472.625C26.5 473.661 27.34 474.5 28.3762 474.5H39.6333C40.6658 474.495 41.5 473.657 41.5 472.625V461.375C41.5 460.343 40.6658 459.505 39.6333 459.5ZM29.625 461.375H32.125C32.8154 461.375 33.375 461.935 33.375 462.625V471.375C33.375 472.065 32.8154 472.625 32.125 472.625H29.625C28.9346 472.625 28.375 472.065 28.375 471.375V462.625C28.375 461.935 28.9346 461.375 29.625 461.375ZM38.375 461.375H35.875C35.1846 461.375 34.625 461.935 34.625 462.625V467C34.625 467.69 35.1846 468.25 35.875 468.25H38.375C39.0654 468.25 39.625 467.69 39.625 467V462.625C39.625 461.935 39.0654 461.375 38.375 461.375Z" fill="url(#paint4_linear_46_2)"/>
<defs>
<linearGradient id="paint0_linear_46_2" x1="33.5226" y1="119.796" x2="29.0605" y2="121.744" gradientUnits="userSpaceOnUse">
<stop offset="0.18" stop-color="#0052CC"/>
<stop offset="1" stop-color="#2684FF"/>
</linearGradient>
<linearGradient id="paint1_linear_46_2" x1="34.5111" y1="130.174" x2="38.9651" y2="128.24" gradientUnits="userSpaceOnUse">
<stop offset="0.18" stop-color="#0052CC"/>
<stop offset="1" stop-color="#2684FF"/>
</linearGradient>
<linearGradient id="paint2_linear_46_2" x1="25.9998" y1="206.991" x2="45.4998" y2="206.491" gradientUnits="userSpaceOnUse">
<stop stop-color="#8034FB"/>
<stop offset="1" stop-color="#1DB8FA"/>
</linearGradient>
<linearGradient id="paint3_linear_46_2" x1="25.9998" y1="198" x2="41.9998" y2="198" gradientUnits="userSpaceOnUse">
<stop stop-color="#FB27DC"/>
<stop offset="1" stop-color="#FEA720"/>
</linearGradient>
<linearGradient id="paint4_linear_46_2" x1="34.0048" y1="474.5" x2="34.0048" y2="459.5" gradientUnits="userSpaceOnUse">
<stop stop-color="#0052CC"/>
<stop offset="0.51698" stop-color="#217EF8"/>
<stop offset="1" stop-color="#2684FF"/>
</linearGradient>
<clipPath id="clip0_46_2">
<rect width="20" height="20" fill="white" transform="translate(24 327)"/>
</clipPath>
</defs>
</svg>
