<svg width="380" height="380" viewBox="0 0 380 380" fill="none" xmlns="http://www.w3.org/2000/svg">
<rect width="380" height="380" fill="#E7E8F8"/>
<circle cx="189.571" cy="189.571" r="90.5714" fill="#D3D3F2" fill-opacity="0.5"/>
<g filter="url(#filter0_d_51_50)">
<rect x="122" y="122" width="136" height="136" rx="67.9999" fill="white"/>
<g clip-path="url(#clip0_51_50)">
<path d="M171.467 178.304C175.354 172.158 182.203 168.087 190.001 168.087C197.798 168.087 204.647 172.158 208.535 178.304L213.164 175.375C208.315 167.709 199.754 162.609 190.001 162.609C180.247 162.609 171.686 167.709 166.837 175.375L171.467 178.304ZM190.001 211.913C182.203 211.913 175.354 207.842 171.467 201.696L166.837 204.625C171.686 212.291 180.247 217.391 190.001 217.391C199.754 217.391 208.315 212.291 213.164 204.625L208.535 201.696C204.647 207.842 197.798 211.913 190.001 211.913ZM190 179.043C191.513 179.043 192.739 180.27 192.739 181.783C192.739 183.295 191.513 184.522 190 184.522C188.487 184.522 187.261 183.295 187.261 181.783C187.261 180.27 188.487 179.043 190 179.043ZM190 190C194.538 190 198.217 186.321 198.217 181.783C198.217 177.244 194.538 173.565 190 173.565C185.462 173.565 181.783 177.244 181.783 181.783C181.783 186.321 185.462 190 190 190ZM190 198.217C186.974 198.217 184.522 200.67 184.522 203.695H179.044C179.044 197.644 183.949 192.739 190 192.739C196.051 192.739 200.956 197.644 200.956 203.695H195.478C195.478 200.67 193.026 198.217 190 198.217ZM165.348 187.261C163.835 187.261 162.609 188.487 162.609 190C162.609 191.513 163.835 192.739 165.348 192.739C166.861 192.739 168.087 191.513 168.087 190C168.087 188.487 166.861 187.261 165.348 187.261ZM157.131 190C157.131 185.461 160.81 181.783 165.348 181.783C169.886 181.783 173.565 185.461 173.565 190C173.565 194.538 169.886 198.217 165.348 198.217C160.81 198.217 157.131 194.538 157.131 190ZM211.913 190C211.913 188.487 213.139 187.261 214.652 187.261C216.165 187.261 217.391 188.487 217.391 190C217.391 191.513 216.165 192.739 214.652 192.739C213.139 192.739 211.913 191.513 211.913 190ZM214.652 181.783C210.113 181.783 206.435 185.461 206.435 190C206.435 194.538 210.113 198.217 214.652 198.217C219.19 198.217 222.869 194.538 222.869 190C222.869 185.461 219.19 181.783 214.652 181.783Z" fill="#5A498A"/>
</g>
</g>
<defs>
<filter id="filter0_d_51_50" x="104.435" y="113.217" width="171.131" height="171.13" filterUnits="userSpaceOnUse" color-interpolation-filters="sRGB">
<feFlood flood-opacity="0" result="BackgroundImageFix"/>
<feColorMatrix in="SourceAlpha" type="matrix" values="0 0 0 0 0 0 0 0 0 0 0 0 0 0 0 0 0 0 127 0" result="hardAlpha"/>
<feOffset dy="8.78268"/>
<feGaussianBlur stdDeviation="8.78268"/>
<feComposite in2="hardAlpha" operator="out"/>
<feColorMatrix type="matrix" values="0 0 0 0 0.294118 0 0 0 0 0.25098 0 0 0 0 0.435294 0 0 0 0.5 0"/>
<feBlend mode="normal" in2="BackgroundImageFix" result="effect1_dropShadow_51_50"/>
<feBlend mode="normal" in="SourceGraphic" in2="effect1_dropShadow_51_50" result="shape"/>
</filter>
<clipPath id="clip0_51_50">
<rect width="65.7383" height="65.7383" fill="white" transform="translate(157.131 157.131)"/>
</clipPath>
</defs>
</svg>
