<svg width="380" height="380" viewBox="0 0 380 380" fill="none" xmlns="http://www.w3.org/2000/svg">
<rect width="380" height="380" fill="#E7E8F8"/>
<circle cx="189.571" cy="189.571" r="90.5714" fill="#D3D3F2" fill-opacity="0.5"/>
<g filter="url(#filter0_d_51_50)">
<rect x="122" y="122" width="136" height="136" rx="67.9999" fill="white"/>
<path d="M184.522 179.043H195.478V174.935C195.478 169.64 199.77 165.348 205.065 165.348C210.36 165.348 214.652 169.64 214.652 174.935C214.652 180.23 210.36 184.522 205.065 184.522H200.956V195.478H205.065C210.36 195.478 214.652 199.77 214.652 205.065C214.652 210.36 210.36 214.652 205.065 214.652C199.77 214.652 195.478 210.36 195.478 205.065V200.956H184.522V205.065C184.522 210.36 180.23 214.652 174.935 214.652C169.64 214.652 165.348 210.36 165.348 205.065C165.348 199.77 169.64 195.478 174.935 195.478H179.044V184.522H174.935C169.64 184.522 165.348 180.23 165.348 174.935C165.348 169.64 169.64 165.348 174.935 165.348C180.23 165.348 184.522 169.64 184.522 174.935V179.043ZM179.044 179.043V174.935C179.044 172.666 177.204 170.826 174.935 170.826C172.666 170.826 170.826 172.666 170.826 174.935C170.826 177.204 172.666 179.043 174.935 179.043H179.044ZM179.044 200.956H174.935C172.666 200.956 170.826 202.796 170.826 205.065C170.826 207.334 172.666 209.174 174.935 209.174C177.204 209.174 179.044 207.334 179.044 205.065V200.956ZM200.956 179.043H205.065C207.334 179.043 209.174 177.204 209.174 174.935C209.174 172.666 207.334 170.826 205.065 170.826C202.796 170.826 200.956 172.666 200.956 174.935V179.043ZM200.956 200.956V205.065C200.956 207.334 202.796 209.174 205.065 209.174C207.334 209.174 209.174 207.334 209.174 205.065C209.174 202.796 207.334 200.956 205.065 200.956H200.956ZM184.522 184.522V195.478H195.478V184.522H184.522Z" fill="#5A498A"/>
</g>
<defs>
<filter id="filter0_d_51_50" x="104.435" y="113.217" width="171.131" height="171.13" filterUnits="userSpaceOnUse" color-interpolation-filters="sRGB">
<feFlood flood-opacity="0" result="BackgroundImageFix"/>
<feColorMatrix in="SourceAlpha" type="matrix" values="0 0 0 0 0 0 0 0 0 0 0 0 0 0 0 0 0 0 127 0" result="hardAlpha"/>
<feOffset dy="8.78268"/>
<feGaussianBlur stdDeviation="8.78268"/>
<feComposite in2="hardAlpha" operator="out"/>
<feColorMatrix type="matrix" values="0 0 0 0 0.294118 0 0 0 0 0.25098 0 0 0 0 0.435294 0 0 0 0.5 0"/>
<feBlend mode="normal" in2="BackgroundImageFix" result="effect1_dropShadow_51_50"/>
<feBlend mode="normal" in="SourceGraphic" in2="effect1_dropShadow_51_50" result="shape"/>
</filter>
</defs>
</svg>
