<svg width="149" height="148" viewBox="0 0 149 148" fill="none" xmlns="http://www.w3.org/2000/svg">
<path d="M-0.166504 75.5123C-0.166504 58.5399 -0.166504 50.0537 3.68423 43.0187C7.53496 35.9837 14.57 31.6175 28.64 22.8853L43.4734 13.6793C58.3464 4.44869 65.7832 -0.166626 74.0001 -0.166626C82.2171 -0.166626 89.6538 4.44869 104.527 13.6793L119.36 22.8852C133.431 31.6175 140.465 35.9837 144.316 43.0187C148.167 50.0537 148.167 58.5399 148.167 75.5123V86.7938C148.167 115.725 148.167 130.191 139.477 139.178C130.789 148.167 116.803 148.167 88.8335 148.167H59.1668C31.1968 148.167 17.2118 148.167 8.52264 139.178C-0.166503 130.191 -0.166504 115.725 -0.166504 86.7938V75.5123Z" fill="#60A5FA"/>
<path d="M55.0627 99.1982C52.5947 97.3693 49.111 97.887 47.2816 100.354C45.4522 102.823 45.97 106.306 48.438 108.136C55.6501 113.482 64.4703 116.646 74 116.646C83.5304 116.646 92.3503 113.482 99.563 108.136C102.031 106.306 102.548 102.823 100.719 100.354C98.8896 97.887 95.406 97.3693 92.9377 99.1982C87.5362 103.202 81.0154 105.521 74 105.521C66.9846 105.521 60.4646 103.202 55.0627 99.1982Z" fill="#1E3A8A"/>
</svg>
