<svg width="848" height="148" viewBox="0 0 848 148" fill="none" xmlns="http://www.w3.org/2000/svg">
<g clip-path="url(#clip0_6_5)">
<path d="M-0.166626 75.5123C-0.166626 58.5399 -0.166626 50.0537 3.68411 43.0187C7.53484 35.9837 14.5699 31.6175 28.6399 22.8853L43.4733 13.6793C58.3463 4.44866 65.7831 -0.166656 74 -0.166656C82.217 -0.166656 89.6537 4.44866 104.527 13.6793L119.36 22.8852C133.431 31.6175 140.465 35.9837 144.316 43.0187C148.167 50.0537 148.167 58.5399 148.167 75.5123V86.7938C148.167 115.725 148.167 130.191 139.477 139.178C130.789 148.167 116.803 148.167 88.8334 148.167H59.1667C31.1967 148.167 17.2117 148.167 8.52252 139.178C-0.166625 130.191 -0.166626 115.725 -0.166626 86.7938V75.5123Z" fill="#60A5FA"/>
<path d="M55.0627 99.1981C52.5947 97.3692 49.111 97.8869 47.2816 100.354C45.4522 102.823 45.97 106.306 48.438 108.136C55.6501 113.482 64.4703 116.646 74 116.646C83.5304 116.646 92.3503 113.482 99.563 108.136C102.031 106.306 102.548 102.823 100.719 100.354C98.8896 97.8869 95.406 97.3692 92.9377 99.1981C87.5362 103.202 81.0154 105.521 74 105.521C66.9846 105.521 60.4646 103.202 55.0627 99.1981Z" fill="#1E3A8A"/>
<path d="M801.716 96.888L827.956 69.88H844.468L807.476 105.08L801.716 96.888ZM804.532 134.136H791.22V45.56H804.66L804.532 134.136ZM810.548 92.536L847.668 134.136H830.388L801.076 101.496L810.548 92.536Z" fill="#172554"/>
<path d="M748.11 136.056C743.502 136.056 739.577 135.544 736.334 134.52C733.177 133.581 730.062 132.387 726.99 130.936V118.264C729.209 119.629 731.385 120.867 733.518 121.976C735.651 123 737.87 123.811 740.174 124.408C742.563 125.005 745.209 125.304 748.11 125.304C751.779 125.304 754.638 124.536 756.686 123C758.819 121.464 759.886 119.544 759.886 117.24C759.886 115.277 759.203 113.741 757.838 112.632C756.558 111.523 754.894 110.584 752.846 109.816C750.798 109.048 748.665 108.28 746.446 107.512C744.142 106.915 741.838 106.232 739.534 105.464C737.23 104.611 735.097 103.501 733.134 102.136C731.257 100.685 729.721 98.8507 728.526 96.632C727.417 94.4133 726.862 91.6827 726.862 88.44C726.862 84.856 727.587 81.8267 729.038 79.352C730.489 76.792 732.366 74.744 734.67 73.208C737.059 71.5867 739.662 70.4347 742.478 69.752C745.379 68.984 748.195 68.6 750.926 68.6C755.449 68.6853 759.118 69.24 761.934 70.264C764.835 71.288 767.651 72.5253 770.382 73.976L770.51 85.496C767.438 83.8747 764.537 82.4667 761.806 81.272C759.075 80.0773 755.918 79.48 752.334 79.48C749.006 79.48 746.233 80.12 744.014 81.4C741.795 82.5947 740.686 84.3867 740.686 86.776C740.686 88.824 741.283 90.4453 742.478 91.64C743.758 92.8347 745.379 93.7733 747.342 94.456C749.39 95.1387 751.566 95.8213 753.87 96.504C756.003 97.1867 758.222 97.912 760.526 98.68C762.83 99.3627 764.963 100.387 766.926 101.752C768.889 103.117 770.467 104.909 771.662 107.128C772.942 109.347 773.582 112.248 773.582 115.832C773.497 120.611 772.217 124.493 769.742 127.48C767.353 130.467 764.195 132.643 760.27 134.008C756.345 135.373 752.291 136.056 748.11 136.056Z" fill="#172554"/>
<path d="M684.528 136.056C678.213 136.056 672.709 134.776 668.016 132.216C663.408 129.656 659.824 125.859 657.264 120.824C654.789 115.789 653.552 109.645 653.552 102.392C653.552 91.2133 656.155 82.7653 661.36 77.048C666.651 71.2453 673.989 68.344 683.376 68.344C690.288 68.344 695.877 69.88 700.144 72.952C704.411 76.024 707.483 80.3333 709.36 85.88C711.323 91.3413 712.261 97.7413 712.176 105.08H661.616L661.232 95.096H701.936L698.736 98.296C698.48 91.7253 697.115 86.9467 694.64 83.96C692.165 80.888 688.283 79.352 682.992 79.352C679.579 79.352 676.677 80.0773 674.288 81.528C671.899 82.8933 670.064 85.2827 668.784 88.696C667.589 92.024 666.992 96.632 666.992 102.52C666.992 109.688 668.656 115.149 671.984 118.904C675.312 122.573 680.219 124.408 686.704 124.408C689.605 124.408 692.293 124.152 694.768 123.64C697.328 123.128 699.675 122.488 701.808 121.72C703.941 120.867 705.776 120.056 707.312 119.288V131.704C704.325 132.984 700.955 134.008 697.2 134.776C693.445 135.629 689.221 136.056 684.528 136.056Z" fill="#172554"/>
<path d="M608.376 136.056C604.451 136.056 600.611 135.544 596.856 134.52C593.101 133.581 589.688 131.875 586.616 129.4C583.544 126.84 581.112 123.299 579.32 118.776C577.528 114.253 576.632 108.408 576.632 101.24C576.632 91.0853 579.107 83.064 584.056 77.176C589.005 71.288 596.515 68.344 606.584 68.344C608.205 68.344 610.211 68.5573 612.6 68.984C614.989 69.4107 617.421 70.0507 619.896 70.904C622.371 71.672 624.461 72.696 626.168 73.976L622.712 78.456V43H636.024V120.696C636.024 123.341 635.171 125.645 633.464 127.608C631.843 129.571 629.667 131.192 626.936 132.472C624.205 133.667 621.219 134.563 617.976 135.16C614.733 135.757 611.533 136.056 608.376 136.056ZM608.76 124.408C612.6 124.408 615.885 123.939 618.616 123C621.347 122.061 622.712 120.824 622.712 119.288V83.576C620.493 82.296 618.147 81.3573 615.672 80.76C613.197 80.1627 610.808 79.864 608.504 79.864C604.323 79.864 600.867 80.7173 598.136 82.424C595.491 84.0453 593.528 86.4773 592.248 89.72C590.968 92.8773 590.328 96.8027 590.328 101.496C590.328 105.763 590.84 109.645 591.864 113.144C592.888 116.557 594.723 119.288 597.368 121.336C600.099 123.384 603.896 124.408 608.76 124.408Z" fill="#172554"/>
<path d="M531.56 136.056C521.149 136.056 513.384 133.112 508.264 127.224C503.229 121.336 500.712 112.931 500.712 102.008C500.712 90.4027 503.315 81.912 508.52 76.536C513.811 71.0747 521.405 68.344 531.304 68.344C538.387 68.344 544.232 69.6667 548.84 72.312C553.448 74.872 556.861 78.6693 559.08 83.704C561.299 88.7387 562.408 94.84 562.408 102.008C562.408 112.845 559.72 121.251 554.344 127.224C549.053 133.112 541.459 136.056 531.56 136.056ZM531.432 124.664C535.784 124.664 539.24 123.725 541.8 121.848C544.36 119.885 546.195 117.197 547.304 113.784C548.499 110.371 549.096 106.445 549.096 102.008C549.096 97.0587 548.499 92.92 547.304 89.592C546.109 86.264 544.232 83.7893 541.672 82.168C539.112 80.4613 535.699 79.608 531.432 79.608C527.165 79.608 523.752 80.504 521.192 82.296C518.632 84.088 516.797 86.648 515.688 89.976C514.579 93.304 514.024 97.3147 514.024 102.008C514.024 109.091 515.347 114.637 517.992 118.648C520.637 122.659 525.117 124.664 531.432 124.664Z" fill="#172554"/>
<path d="M455.536 136.056C451.611 136.056 447.771 135.544 444.016 134.52C440.261 133.581 436.848 131.875 433.776 129.4C430.704 126.84 428.272 123.299 426.48 118.776C424.688 114.253 423.792 108.408 423.792 101.24C423.792 91.0853 426.267 83.064 431.216 77.176C436.165 71.288 443.675 68.344 453.744 68.344C455.365 68.344 457.371 68.5573 459.76 68.984C462.149 69.4107 464.581 70.0507 467.056 70.904C469.531 71.672 471.621 72.696 473.328 73.976L469.872 78.456V43H483.184V120.696C483.184 123.341 482.331 125.645 480.624 127.608C479.003 129.571 476.827 131.192 474.096 132.472C471.365 133.667 468.379 134.563 465.136 135.16C461.893 135.757 458.693 136.056 455.536 136.056ZM455.92 124.408C459.76 124.408 463.045 123.939 465.776 123C468.507 122.061 469.872 120.824 469.872 119.288V83.576C467.653 82.296 465.307 81.3573 462.832 80.76C460.357 80.1627 457.968 79.864 455.664 79.864C451.483 79.864 448.027 80.7173 445.296 82.424C442.651 84.0453 440.688 86.4773 439.408 89.72C438.128 92.8773 437.488 96.8027 437.488 101.496C437.488 105.763 438 109.645 439.024 113.144C440.048 116.557 441.883 119.288 444.528 121.336C447.259 123.384 451.056 124.408 455.92 124.408Z" fill="#172554"/>
<path d="M350.2 75.128C352.077 74.1893 354.168 73.336 356.472 72.568C358.861 71.7147 361.379 70.9893 364.024 70.392C366.669 69.7947 369.357 69.3253 372.088 68.984C374.819 68.6427 377.464 68.472 380.024 68.472C386.083 68.472 391.032 69.3253 394.872 71.032C398.712 72.6533 401.571 75.2133 403.448 78.712C405.325 82.1253 406.264 86.4347 406.264 91.64V134.136H392.824V93.432C392.824 91.8107 392.611 90.232 392.184 88.696C391.843 87.0747 391.117 85.624 390.008 84.344C388.984 82.9787 387.448 81.912 385.4 81.144C383.437 80.376 380.835 79.992 377.592 79.992C375.288 79.992 372.899 80.2053 370.424 80.632C368.035 81.0587 365.773 81.656 363.64 82.424V134.136H350.2V75.128Z" fill="#172554"/>
<path d="M301.8 136.056C291.389 136.056 283.624 133.112 278.504 127.224C273.469 121.336 270.952 112.931 270.952 102.008C270.952 90.4027 273.555 81.912 278.76 76.536C284.051 71.0747 291.645 68.344 301.544 68.344C308.627 68.344 314.472 69.6667 319.08 72.312C323.688 74.872 327.101 78.6693 329.32 83.704C331.539 88.7387 332.648 94.84 332.648 102.008C332.648 112.845 329.96 121.251 324.584 127.224C319.293 133.112 311.699 136.056 301.8 136.056ZM301.672 124.664C306.024 124.664 309.48 123.725 312.04 121.848C314.6 119.885 316.435 117.197 317.544 113.784C318.739 110.371 319.336 106.445 319.336 102.008C319.336 97.0587 318.739 92.92 317.544 89.592C316.349 86.264 314.472 83.7893 311.912 82.168C309.352 80.4613 305.939 79.608 301.672 79.608C297.405 79.608 293.992 80.504 291.432 82.296C288.872 84.088 287.037 86.648 285.928 89.976C284.819 93.304 284.264 97.3147 284.264 102.008C284.264 109.091 285.587 114.637 288.232 118.648C290.877 122.659 295.357 124.664 301.672 124.664Z" fill="#172554"/>
<path d="M204.184 107.512L201.24 94.968L239.512 48.76H257.432L204.184 107.512ZM191 134.136V48.76H205.208V134.136H191ZM220.312 83.96L260.12 134.136H241.688L209.432 93.176L220.312 83.96Z" fill="#172554"/>
</g>
<defs>
<clipPath id="clip0_6_5">
<rect width="848" height="148" fill="white"/>
</clipPath>
</defs>
</svg>
